HIERARCHY
ROOT Hips
{
	OFFSET -3.958830 18.904000 13.208200
	CHANNELS 6 Xposition Yposition Zposition Zrotation Yrotation Xrotation 
	JOINT LHipJoint
	{
		OFFSET 0.000000 0.000000 0.000000
		CHANNELS 3 Zrotation Yrotation Xrotation
		JOINT LeftUpLeg
		{
			OFFSET 1.800000 -1.400000 0.085000
			CHANNELS 3 Zrotation Yrotation Xrotation
			JOINT LeftLeg
			{
				OFFSET 2.215000 -6.000000 0.000000
				CHANNELS 3 Zrotation Yrotation Xrotation
				JOINT LeftFoot
				{
					OFFSET 2.500000 -6.900000 0.000000
					CHANNELS 3 Zrotation Yrotation Xrotation
					JOINT LeftToeBase
					{
						OFFSET 0.200000 -0.500000 1.950000
						CHANNELS 3 Zrotation Yrotation Xrotation
						End Site
						{
							OFFSET 0.000000 0.000000 0.000000
						}
					}
				}
			}
		}
	}
	JOINT RHipJoint
	{
		OFFSET 0.000000 0.000000 0.000000
		CHANNELS 3 Zrotation Yrotation Xrotation
		JOINT RightUpLeg
		{
			OFFSET -1.800000 -1.400000 0.085000
			CHANNELS 3 Zrotation Yrotation Xrotation
			JOINT RightLeg
			{
				OFFSET -2.215000 -6.000000 0.000000
				CHANNELS 3 Zrotation Yrotation Xrotation
				JOINT RightFoot
				{
					OFFSET -2.500000 -6.900000 0.000000
					CHANNELS 3 Zrotation Yrotation Xrotation
					JOINT RightToeBase
					{
						OFFSET -0.200000 -0.500000 1.950000
						CHANNELS 3 Zrotation Yrotation Xrotation
						End Site
						{
							OFFSET 0.000000 0.000000 0.000000
						}
					}
				}
			}
		}
	}
	JOINT LowerBack
	{
		OFFSET 0.000000 0.000000 0.000000
		CHANNELS 3 Zrotation Yrotation Xrotation
		JOINT Spine
		{
			OFFSET -0.087000 1.940000 -0.288900
			CHANNELS 3 Zrotation Yrotation Xrotation
			JOINT Spine1
			{
				OFFSET 0.000000 1.950000 0.060000
				CHANNELS 3 Zrotation Yrotation Xrotation
				JOINT Neck
				{
					OFFSET 0.000000 0.000000 0.000000
					CHANNELS 3 Zrotation Yrotation Xrotation
					JOINT Neck1
					{
						OFFSET 0.000000 1.600000 0.340000
						CHANNELS 3 Zrotation Yrotation Xrotation
						JOINT Head
						{
							OFFSET 0.000000 1.667000 -0.240000
							CHANNELS 3 Zrotation Yrotation Xrotation
							End Site
							{
								OFFSET 0.000000 0.000000 0.000000
							}
						}
					}
				}
				JOINT LeftShoulder
				{
					OFFSET 0.000000 0.000000 0.000000
					CHANNELS 3 Zrotation Yrotation Xrotation
					JOINT LeftArm
					{
						OFFSET 2.700000 1.550000 -0.730000
						CHANNELS 3 Zrotation Yrotation Xrotation
						JOINT LeftForeArm
						{
							OFFSET 5.450000 0.000000 0.000000
							CHANNELS 3 Zrotation Yrotation Xrotation
							JOINT LeftHand
							{
								OFFSET 3.450000 0.000000 0.000000
								CHANNELS 3 Zrotation Yrotation Xrotation
								JOINT LeftHandIndex1
								{
									OFFSET 0.750000 0.000000 0.000000
									CHANNELS 3 Zrotation Yrotation Xrotation
									End Site
									{
										OFFSET 0.000000 0.000000 0.000000
									}
								}
							}
						}
					}
				}
				JOINT RightShoulder
				{
					OFFSET 0.000000 0.000000 0.000000
					CHANNELS 3 Zrotation Yrotation Xrotation
					JOINT RightArm
					{
						OFFSET -2.700000 1.550000 -0.730000
						CHANNELS 3 Zrotation Yrotation Xrotation
						JOINT RightForeArm
						{
							OFFSET -5.450000 0.000000 0.000000
							CHANNELS 3 Zrotation Yrotation Xrotation
							JOINT RightHand
							{
								OFFSET -3.450000 0.000000 0.000000
								CHANNELS 3 Zrotation Yrotation Xrotation
								JOINT RightHandIndex1
								{
									OFFSET -0.750000 0.000000 0.000000
									CHANNELS 3 Zrotation Yrotation Xrotation
									End Site
									{
										OFFSET 0.000000 0.000000 0.000000
									}
								}
							}
						}
					}
				}
			}
		}
	}
}
MOTION
Frames: 7
Frame Time: 0.016667
-1.766570 17.776150 -1.085710 21.042867 -18.535570 -14.345678 -16.085337 10.141876 7.904250 17.366660 -21.622079 -63.709685 -12.401722 38.593803 97.033364 3.177002 20.788704 -1.879325 0.482840 0.652820 0.356080 18.115712 -8.408641 1.345041 -13.591941 1.620272 -35.194735 -14.388096 -3.109736 49.609281 -1.045056 -6.695277 1.723067 0.309410 -0.118900 0.283530 -2.284402 -3.573947 -9.701380 1.869844 0.302562 54.011030 1.845489 2.190591 16.107472 2.717174 -0.008122 -14.032681 -1.771923 3.594692 37.992213 -10.939980 7.552810 -33.041540 -1.092509 -29.266683 5.758649 -11.325116 -12.289404 -19.085507 66.752069 -44.628237 -33.800290 -3.627792 2.613246 0.723150 -0.097380 0.502680 0.015490 -4.574972 33.365037 9.029479 24.629855 17.158328 -25.318689 -65.593659 49.697475 -37.944362 1.705832 -0.890941 -0.054620 0.280710 0.044350 -0.138500 
-1.760540 17.761630 -1.139260 21.617372 -17.908778 -14.854509 -16.137375 10.070413 8.043493 18.213274 -22.439091 -66.122898 -16.043301 40.137479 94.026366 3.196821 20.871606 -1.891013 0.484230 0.659000 0.355790 18.092090 -8.298516 1.293398 -14.387485 1.476709 -35.264833 -14.309095 -3.148346 49.933630 -1.032199 -6.774261 1.685011 0.334870 -0.101540 0.264280 -2.188711 -3.774935 -9.735743 1.338268 1.057186 55.390552 2.667318 2.299088 17.008621 2.437389 0.359581 -14.261834 -1.382224 3.118831 38.531424 -9.906250 7.048290 -31.017530 1.347662 -29.915366 5.367118 -8.428643 -13.290816 -18.968462 61.981242 -41.980860 -29.217821 -3.724347 2.748099 0.693630 -0.078500 0.473270 0.008300 -6.578001 33.773892 8.973612 21.064111 15.691813 -26.025637 -66.208516 45.848039 -36.068222 1.842736 -1.145699 -0.066780 0.291490 0.046900 -0.138250 
-1.759270 17.713910 -1.242250 22.471210 -17.180544 -15.592474 -16.221758 9.916235 8.265393 20.031807 -23.094723 -70.561091 -20.698548 41.487127 89.541359 3.249076 20.696093 -1.803270 0.452250 0.662060 0.324840 18.067871 -8.080671 1.287753 -15.281303 1.567334 -35.906874 -14.434871 -3.079975 51.039799 -1.063471 -6.952467 1.682201 0.305350 -0.073630 0.234390 -2.063624 -4.022024 -9.838543 0.329715 2.433730 58.594674 3.573204 2.756525 16.239627 2.311227 1.578688 -14.144615 0.515019 2.593935 40.769922 -10.131620 7.353510 -30.106880 4.656551 -29.759223 4.728000 -2.602826 -13.697329 -17.628086 53.858628 -36.958119 -21.319569 -3.799590 2.859870 0.660280 -0.063530 0.477620 0.036610 -9.769286 32.972597 8.163713 17.483395 15.931757 -26.018062 -67.391734 41.237151 -33.865478 1.989589 -1.297793 -0.057900 0.328090 0.030860 -0.103560 
-1.759640 17.644220 -1.325660 23.210594 -16.695523 -14.848574 -16.328135 9.616240 8.534645 22.987776 -22.961140 -76.581204 -26.703954 43.033385 83.749208 3.195169 20.436204 -1.678225 0.330720 0.475290 0.299140 18.055392 -7.702496 1.438614 -15.720725 2.009442 -38.170625 -14.939741 -2.878172 52.544878 -1.071857 -7.166307 1.637876 0.228300 -0.011750 0.168860 -1.951707 -4.232409 -10.026419 -0.947648 3.962455 60.228584 4.994671 3.254984 14.475747 1.892582 2.389948 -14.017828 1.693710 1.856622 42.509569 -9.744350 7.246730 -28.919630 6.988408 -28.915433 4.125262 0.930748 -14.381617 -16.104372 49.735526 -32.997571 -17.079001 -3.868542 2.778652 0.709320 -0.058220 0.421720 0.005130 -11.246830 31.731462 7.787971 15.304115 15.529457 -25.316238 -68.620304 38.501771 -32.287202 2.026136 -1.262207 -0.169510 0.406470 0.083690 -0.143050 
-1.778330 17.576550 -1.373640 23.754178 -15.754637 -13.909663 -16.407913 9.344974 8.767430 25.597641 -22.779176 -82.041749 -31.177874 43.802446 79.528033 3.231834 20.064938 -1.528256 0.321060 0.492220 0.278100 18.057849 -7.430499 1.538243 -15.699538 2.155341 -40.035561 -16.110591 -2.358365 53.440730 -1.112855 -7.335910 1.639471 0.212260 0.022680 0.141860 -1.884785 -4.338314 -10.157090 -2.011232 4.920874 60.677356 6.238629 3.273510 13.453624 1.402626 2.881529 -13.478980 2.580937 1.602569 42.975537 -9.389630 7.499960 -28.110840 8.145905 -27.759971 3.586873 3.030666 -14.803840 -15.095263 47.700259 -32.082712 -15.314891 -3.845415 2.768132 0.661360 -0.046730 0.418610 0.052720 -11.409190 30.284128 7.428966 14.028158 15.799968 -24.017268 -69.539845 36.662537 -31.432991 2.032128 -1.255378 -0.156010 0.438310 0.047670 -0.100770 
-1.791760 17.528680 -1.382170 24.133317 -15.944017 -13.551370 -16.462402 9.180710 8.948972 27.619641 -21.989388 -85.513014 -34.287446 44.269037 76.609698 3.239107 19.700582 -1.440908 0.353910 0.526440 0.283730 18.057866 -7.275333 1.569116 -14.620415 2.596520 -40.800842 -18.234458 -1.050146 53.583922 -1.157668 -7.412528 1.603271 0.209550 -0.019550 0.152490 -1.838378 -4.404203 -10.244038 -3.255706 5.850724 60.859196 7.168753 3.259442 12.851490 0.893273 2.802796 -13.499198 2.390377 1.842392 43.952989 -7.596310 7.680580 -27.160140 8.742072 -27.365775 3.492210 3.416157 -14.252614 -15.369755 49.254834 -32.660301 -15.889417 -3.805222 2.863092 0.640300 -0.078280 0.428450 0.057300 -10.924647 29.995959 7.412385 12.914848 16.185584 -22.877194 -67.572048 34.920489 -28.950464 2.084286 -1.335096 -0.105600 0.362340 0.007790 -0.084490 
-1.814000 17.493640 -1.377200 24.472775 -15.967745 -13.766482 -16.460429 9.117969 9.029105 28.166764 -21.827167 -87.130753 -35.107287 44.444543 76.004348 3.270862 19.601138 -1.429442 0.352990 0.525180 0.254740 18.069823 -7.296570 1.553085 -13.405292 2.909050 -40.606878 -20.553035 0.366037 53.332063 -1.219982 -7.466212 1.588143 0.168760 -0.055900 0.177630 -1.862917 -4.314349 -10.276267 -3.860390 6.468610 61.152035 7.239523 3.510130 12.227223 0.591845 2.881549 -14.162065 2.204815 1.739893 45.886393 -6.134400 7.491620 -27.748550 9.652689 -27.705802 3.538560 3.152695 -14.576375 -15.255374 47.686185 -31.454170 -14.830781 -3.773914 2.945143 0.666360 -0.120540 0.459890 0.055380 -11.181392 30.115873 7.917194 14.421895 15.678130 -22.687183 -66.305562 34.944893 -27.970724 2.112482 -1.349391 -0.060540 0.304950 0.009000 -0.068360 
